<?xml version="1.0" standalone="no"?>
<!DOCTYPE svg PUBLIC "-//W3C//DTD SVG 1.1//EN" "http://www.w3.org/Graphics/SVG/1.1/DTD/svg11.dtd">
<!-- Created with WaveDrom -->
<!--
{reg: [
  {"bits": 2, "name": "ShortA"},
  {"bits": 1, "name": "Byte1A"},
  {"bits": 1, "name": "Byte2A"},
  {"bits": 1, "name": "ByteAB"},
  {"bits": 2, "name": "ShortB"},
  {"bits": 1, "name": "Byte1B"},
  {"bits": 1, "name": "Byte2B"},
], config: {vflip: true}}
-->
<svg xmlns="http://www.w3.org/2000/svg" width="800" height="56" viewBox="0 0 800 56" class="WaveDrom" xmlns:xlink="http://www.w3.org/1999/xlink"><g transform="translate(0.5,0.5)" text-anchor="middle" font-size="14" font-family="sans-serif" font-weight="normal"><g transform="translate(4,21)"><g stroke="black" stroke-width="1" stroke-linecap="round"><line x2="791"/><line x1="791" x2="791" y2="31"/><line x2="791" y1="31" y2="31"/><line y2="31"/><line x1="88" x2="88" y2="3"/><line x1="88" x2="88" y1="31" y2="28"/><line x1="176" x2="176" y2="31"/><line x1="264" x2="264" y2="31"/><line x1="352" x2="352" y2="31"/><line x1="439" x2="439" y2="31"/><line x1="527" x2="527" y2="3"/><line x1="527" x2="527" y1="31" y2="28"/><line x1="615" x2="615" y2="31"/><line x1="703" x2="703" y2="31"/></g><g><g/><g transform="translate(44,-11)"><g transform="translate(0)"><text y="6">0</text></g><g transform="translate(88)"><text y="6">1</text></g><g transform="translate(176)"><text y="6">2</text></g><g transform="translate(264)"><text y="6">3</text></g><g transform="translate(352)"><text y="6">4</text></g><g transform="translate(439)"><text y="6">5</text></g><g transform="translate(527)"><text y="6">6</text></g><g transform="translate(615)"><text y="6">7</text></g><g transform="translate(703)"><text y="6">8</text></g></g><g transform="translate(44,15)"><g transform="translate(44)"><text y="6"><tspan>ShortA</tspan></text></g><g transform="translate(176)"><text y="6"><tspan>Byte1A</tspan></text></g><g transform="translate(264)"><text y="6"><tspan>Byte2A</tspan></text></g><g transform="translate(352)"><text y="6"><tspan>ByteAB</tspan></text></g><g transform="translate(483)"><text y="6"><tspan>ShortB</tspan></text></g><g transform="translate(615)"><text y="6"><tspan>Byte1B</tspan></text></g><g transform="translate(703)"><text y="6"><tspan>Byte2B</tspan></text></g></g><g transform="translate(44,39)"/></g></g></g></svg>
